<?xml version="1.0" standalone="no"?>
<!DOCTYPE svg PUBLIC "-//W3C//DTD SVG 20010904//EN"
 "http://www.w3.org/TR/2001/REC-SVG-20010904/DTD/svg10.dtd">
<svg version="1.0" xmlns="http://www.w3.org/2000/svg"
 width="650.000000pt" height="1280.000000pt" viewBox="0 0 650.000000 1280.000000"
 preserveAspectRatio="xMidYMid meet">
<metadata>
Created by potrace 1.15, written by Peter Selinger 2001-2017
</metadata>
<g transform="translate(0.000000,1280.000000) scale(0.100000,-0.100000)"
fill="#795548" stroke="none">
<path d="M3185 12014 c-22 -2 -101 -8 -176 -14 -152 -12 -286 -37 -371 -69
-69 -27 -167 -92 -185 -123 -10 -18 -13 -164 -13 -708 -1 -806 -2 -711 8 -787
4 -36 15 -70 26 -82 18 -20 18 -21 -3 -57 -20 -34 -22 -48 -22 -297 0 -290
-38 -873 -65 -986 -17 -72 -61 -162 -101 -207 -50 -56 -96 -81 -223 -124 -147
-49 -309 -126 -435 -205 -218 -138 -445 -331 -545 -464 -98 -129 -188 -336
-237 -541 -16 -68 -18 -125 -16 -575 2 -275 9 -853 18 -1285 15 -772 49 -2786
63 -3721 l7 -476 35 -69 c29 -57 48 -78 105 -122 96 -73 253 -149 345 -167 65
-13 301 -15 1850 -13 l1775 3 130 44 c272 91 355 162 384 327 12 68 35 4458
29 5399 -4 500 -7 604 -22 685 -26 149 -55 247 -104 355 -132 294 -269 451
-567 650 -142 94 -236 140 -494 240 -81 31 -137 60 -161 81 -41 37 -92 127
-109 190 -17 62 -91 712 -89 775 1 30 -1 151 -4 271 -6 194 -9 220 -28 258
-19 36 -20 44 -7 58 7 10 19 52 25 94 9 61 9 85 -2 121 -8 27 -10 51 -5 58 5
8 6 41 3 74 -3 33 -9 312 -13 621 -10 616 -7 594 -72 648 -68 57 -174 92 -364
120 -106 15 -303 26 -370 20z"/>
</g>
</svg>
